<mxfile host="app.diagrams.net" modified="2020-12-26T16:13:01.305Z" agent="5.0 (Windows NT 10.0; WOW64) AppleWebKit/537.36 (KHTML, like Gecko) Chrome/86.0.4240.193 Safari/537.36" etag="C8ESNVKzpq6Agew2Gfvv" version="14.1.2" type="github">
  <diagram id="qo1_iu-jgLwLfl8H4EOI" name="第 1 页">
    <mxGraphModel dx="757" dy="681" grid="1" gridSize="10" guides="1" tooltips="1" connect="1" arrows="1" fold="1" page="1" pageScale="1" pageWidth="2336" pageHeight="1654" math="0" shadow="0">
      <root>
        <mxCell id="0" />
        <mxCell id="1" parent="0" />
        <mxCell id="YC9HMaPTUIjE5BwQPhlV-3" style="edgeStyle=orthogonalEdgeStyle;rounded=0;orthogonalLoop=1;jettySize=auto;html=1;" edge="1" parent="1" source="YC9HMaPTUIjE5BwQPhlV-1" target="YC9HMaPTUIjE5BwQPhlV-2">
          <mxGeometry relative="1" as="geometry" />
        </mxCell>
        <mxCell id="YC9HMaPTUIjE5BwQPhlV-1" value="case RETURN" style="rounded=0;whiteSpace=wrap;html=1;" vertex="1" parent="1">
          <mxGeometry x="350" y="160" width="110" height="40" as="geometry" />
        </mxCell>
        <mxCell id="YC9HMaPTUIjE5BwQPhlV-5" style="edgeStyle=orthogonalEdgeStyle;rounded=0;orthogonalLoop=1;jettySize=auto;html=1;" edge="1" parent="1" source="YC9HMaPTUIjE5BwQPhlV-2" target="YC9HMaPTUIjE5BwQPhlV-4">
          <mxGeometry relative="1" as="geometry" />
        </mxCell>
        <mxCell id="YC9HMaPTUIjE5BwQPhlV-2" value="获取其子节点的type" style="whiteSpace=wrap;html=1;" vertex="1" parent="1">
          <mxGeometry x="345" y="230" width="120" height="40" as="geometry" />
        </mxCell>
        <mxCell id="YC9HMaPTUIjE5BwQPhlV-7" style="edgeStyle=orthogonalEdgeStyle;rounded=0;orthogonalLoop=1;jettySize=auto;html=1;" edge="1" parent="1" source="YC9HMaPTUIjE5BwQPhlV-4" target="YC9HMaPTUIjE5BwQPhlV-6">
          <mxGeometry relative="1" as="geometry" />
        </mxCell>
        <mxCell id="YC9HMaPTUIjE5BwQPhlV-4" value="type1 = semantic_Analysis(T-&amp;gt;ptr[0],type,level,flag,command);" style="whiteSpace=wrap;html=1;" vertex="1" parent="1">
          <mxGeometry x="230" y="300" width="350" height="40" as="geometry" />
        </mxCell>
        <mxCell id="YC9HMaPTUIjE5BwQPhlV-9" style="edgeStyle=orthogonalEdgeStyle;rounded=0;orthogonalLoop=1;jettySize=auto;html=1;" edge="1" parent="1" source="YC9HMaPTUIjE5BwQPhlV-6" target="YC9HMaPTUIjE5BwQPhlV-8">
          <mxGeometry relative="1" as="geometry" />
        </mxCell>
        <mxCell id="YC9HMaPTUIjE5BwQPhlV-13" style="edgeStyle=orthogonalEdgeStyle;rounded=0;orthogonalLoop=1;jettySize=auto;html=1;" edge="1" parent="1" source="YC9HMaPTUIjE5BwQPhlV-6" target="YC9HMaPTUIjE5BwQPhlV-10">
          <mxGeometry relative="1" as="geometry">
            <Array as="points">
              <mxPoint x="520" y="385" />
              <mxPoint x="520" y="525" />
            </Array>
          </mxGeometry>
        </mxCell>
        <mxCell id="YC9HMaPTUIjE5BwQPhlV-6" value="type1 == type ?" style="rhombus;whiteSpace=wrap;html=1;" vertex="1" parent="1">
          <mxGeometry x="340" y="360" width="130" height="50" as="geometry" />
        </mxCell>
        <mxCell id="YC9HMaPTUIjE5BwQPhlV-11" style="edgeStyle=orthogonalEdgeStyle;rounded=0;orthogonalLoop=1;jettySize=auto;html=1;" edge="1" parent="1" source="YC9HMaPTUIjE5BwQPhlV-8" target="YC9HMaPTUIjE5BwQPhlV-10">
          <mxGeometry relative="1" as="geometry" />
        </mxCell>
        <mxCell id="YC9HMaPTUIjE5BwQPhlV-8" value="函数返回参数类型与函数定义类型不匹配" style="whiteSpace=wrap;html=1;" vertex="1" parent="1">
          <mxGeometry x="345" y="440" width="120" height="50" as="geometry" />
        </mxCell>
        <mxCell id="YC9HMaPTUIjE5BwQPhlV-10" value="return 0;" style="whiteSpace=wrap;html=1;" vertex="1" parent="1">
          <mxGeometry x="365" y="510" width="80" height="30" as="geometry" />
        </mxCell>
        <mxCell id="YC9HMaPTUIjE5BwQPhlV-12" value="N" style="text;html=1;align=center;verticalAlign=middle;resizable=0;points=[];autosize=1;" vertex="1" parent="1">
          <mxGeometry x="380" y="410" width="20" height="20" as="geometry" />
        </mxCell>
      </root>
    </mxGraphModel>
  </diagram>
</mxfile>
